<svg data-v-0dd9719b="" version="1.0" xmlns="http://www.w3.org/2000/svg" xmlns:xlink="http://www.w3.org/1999/xlink" width="100%" height="100%" viewBox="0 0 340.000000 250.000000" preserveAspectRatio="xMidYMid meet" color-interpolation-filters="sRGB" style="margin: auto;"> <rect data-v-0dd9719b="" x="0" y="0" width="100%" height="100%" fill="#ffffff" fill-opacity="1" class="background"></rect> <rect data-v-0dd9719b="" x="0" y="0" width="100%" height="100%" fill="url(#watermark)" fill-opacity="1" class="watermarklayer"></rect> <g data-v-0dd9719b="" class="iconmbgsvg" transform="translate(71.52999877929688,60)"><g fill="#333333" hollow-target="textRect"><g transform="translate(33.470001220703125,0)" mask="url(#ed82da73-d1e8-47c5-9c71-2a9b58ac59b9)"><g><rect fill="#333333" fill-opacity="0" stroke-width="2" x="0" y="0" width="130" height="130" class="image-rect"></rect> <svg x="0" y="0" width="130" height="130" filtersec="colorsb2909740450" class="image-svg-svg primary" style="overflow: visible;"><svg fill="#000000" xmlns="http://www.w3.org/2000/svg" xmlns:xlink="http://www.w3.org/1999/xlink" version="1.1" x="0px" y="0px" viewBox="11.361000061035156 11.361000061035156 77.27799987792969 77.27799987792969" enable-background="new 0 0 100 100" xml:space="preserve"><path d="M50,11.361L50,11.361C28.66,11.361,11.361,28.66,11.361,50v0c0,21.34,17.299,38.639,38.639,38.639h0  c21.34,0,38.639-17.299,38.639-38.639v0C88.639,28.66,71.34,11.361,50,11.361z M50,82.279c-17.799,0-32.279-14.48-32.279-32.279  c0-17.799,14.48-32.279,32.279-32.279c17.799,0,32.279,14.48,32.279,32.279C82.279,67.799,67.799,82.279,50,82.279z"></path></svg></svg> <!----></g><rect v-gra="id" width="142" height="142" transform="translate(-6, -6)" style="pointer-events:none;" fill="url(#KI_GW-DWsrWrSd4WC4w1W)"></rect></g> <g transform="translate(0,50.829999923706055)"><g data-gra="path-name" fill-rule="" class="tp-name"><g transform="scale(1)"><g><path d="M2.76-28.34L11.56-28.34 18.61-6.2 26.05-28.34 34.84-28.34 34.84 0 29.11 0 29.11-21.25 21.71 0 15.51 0 8.5-21.25 8.5 0 2.76 0 2.76-28.34ZM44.95 0L37.9 0 49.63-28.34 56.55-28.34 68.28 0 61.23 0 58.47-6.54 47.72-6.54 44.95 0ZM57.15-11.6L53.11-21.5 49.08-11.6 57.15-11.6ZM81.75-11.77L81.75-16.83 95.65-16.83 95.65 0 82.98 0Q79.71 0 77.78-0.49 75.85-0.98 74.27-2.21L74.27-2.21Q69.81-5.65 69.81-14.06L69.81-14.06Q69.81-19.55 71.94-23.2L71.94-23.2Q73.51-25.88 76.23-27.11 78.95-28.34 83.28-28.34L83.28-28.34 95.65-28.34 95.65-23.28 83.96-23.28Q80.18-23.28 78.48-21.63L78.48-21.63Q76.44-19.67 76.44-14.62L76.44-14.62Q76.44-12.02 76.97-9.94 77.5-7.86 78.44-6.84L78.44-6.84Q79.24-5.91 80.67-5.48 82.09-5.06 84.17-5.06L84.17-5.06 89.65-5.06 89.65-11.77 81.75-11.77ZM106.74 0L100.7 0 100.7-28.34 106.74-28.34 106.74 0ZM125.35-5.06L134.01-5.06 134.01 0 124.11 0Q121.31 0 119.82-0.3L119.82-0.3Q114.6-1.32 112.39-6.12L112.39-6.12Q110.94-9.35 110.94-14.11L110.94-14.11Q110.94-19.8 113.15-23.37L113.15-23.37Q114.77-25.96 117.46-27.15 120.16-28.34 124.41-28.34L124.41-28.34 134.01-28.34 134.01-23.28 125.09-23.28Q121.05-23.28 119.19-21.12L119.19-21.12Q117.61-19.33 117.61-14.66L117.61-14.66Q117.61-8.37 120.04-6.42L120.04-6.42Q121.73-5.06 125.35-5.06L125.35-5.06ZM138.22-28.34L144.25-28.34 144.25 0 138.22 0 138.22-28.34ZM154.75 0L144.47-14.32 155.3-28.34 163.25-28.34 151.39-14.32 162.7 0 154.75 0ZM172.26 0L166.22 0 166.22-28.34 172.26-28.34 172.26 0ZM184.28 0L184.28-23.28 175.27-23.28 175.27-28.34 199.7-28.34 199.7-23.28 190.31-23.28 190.31 0 184.28 0Z" transform="translate(-2.759999990463257, 28.34000015258789)"></path></g> <!----> <!----> <!----> <!----> <!----> <!----> <!----></g></g> <!----></g></g></g><mask id="b6595cd2-d314-438e-8a14-8219b067722e"><g fill="white"><g><rect fill-opacity="1" stroke-width="2" x="0" y="0" width="130" height="130" class="image-rect"></rect> <svg x="0" y="0" width="130" height="130" filtersec="colorsb2909740450" class="image-svg-svg primary" style="overflow: visible;"><svg xmlns="http://www.w3.org/2000/svg" xmlns:xlink="http://www.w3.org/1999/xlink" version="1.1" x="0px" y="0px" viewBox="11.361000061035156 11.361000061035156 77.27799987792969 77.27799987792969" enable-background="new 0 0 100 100" xml:space="preserve"><path d="M50,11.361L50,11.361C28.66,11.361,11.361,28.66,11.361,50v0c0,21.34,17.299,38.639,38.639,38.639h0  c21.34,0,38.639-17.299,38.639-38.639v0C88.639,28.66,71.34,11.361,50,11.361z M50,82.279c-17.799,0-32.279-14.48-32.279-32.279  c0-17.799,14.48-32.279,32.279-32.279c17.799,0,32.279,14.48,32.279,32.279C82.279,67.799,67.799,82.279,50,82.279z"></path></svg></svg> </g></g> <g transform="translate(-33.470001220703125,50.829999923706055)"><rect fill="black" fill-opacity="1" x="-3.5" y="-3.5" width="203.94000244140625" height="35.34000015258789"></rect><rect fill="black" fill-opacity="1" x="-3.5" y="-3.5"></rect></g><g transform="translate(-33.470001220703125,50.829999923706055)" fill="black"><g data-gra="path-name" fill-rule="" class="tp-name"><g transform="scale(1)"><g><path d="M2.76-28.34L11.56-28.34 18.61-6.2 26.05-28.34 34.84-28.34 34.84 0 29.11 0 29.11-21.25 21.71 0 15.51 0 8.5-21.25 8.5 0 2.76 0 2.76-28.34ZM44.95 0L37.9 0 49.63-28.34 56.55-28.34 68.28 0 61.23 0 58.47-6.54 47.72-6.54 44.95 0ZM57.15-11.6L53.11-21.5 49.08-11.6 57.15-11.6ZM81.75-11.77L81.75-16.83 95.65-16.83 95.65 0 82.98 0Q79.71 0 77.78-0.49 75.85-0.98 74.27-2.21L74.27-2.21Q69.81-5.65 69.81-14.06L69.81-14.06Q69.81-19.55 71.94-23.2L71.94-23.2Q73.51-25.88 76.23-27.11 78.95-28.34 83.28-28.34L83.28-28.34 95.65-28.34 95.65-23.28 83.96-23.28Q80.18-23.28 78.48-21.63L78.48-21.63Q76.44-19.67 76.44-14.62L76.44-14.62Q76.44-12.02 76.97-9.94 77.5-7.86 78.44-6.84L78.44-6.84Q79.24-5.91 80.67-5.48 82.09-5.06 84.17-5.06L84.17-5.06 89.65-5.06 89.65-11.77 81.75-11.77ZM106.74 0L100.7 0 100.7-28.34 106.74-28.34 106.74 0ZM125.35-5.06L134.01-5.06 134.01 0 124.11 0Q121.31 0 119.82-0.3L119.82-0.3Q114.6-1.32 112.39-6.12L112.39-6.12Q110.94-9.35 110.94-14.11L110.94-14.11Q110.94-19.8 113.15-23.37L113.15-23.37Q114.77-25.96 117.46-27.15 120.16-28.34 124.41-28.34L124.41-28.34 134.01-28.34 134.01-23.28 125.09-23.28Q121.05-23.28 119.19-21.12L119.19-21.12Q117.61-19.33 117.61-14.66L117.61-14.66Q117.61-8.37 120.04-6.42L120.04-6.42Q121.73-5.06 125.35-5.06L125.35-5.06ZM138.22-28.34L144.25-28.34 144.25 0 138.22 0 138.22-28.34ZM154.75 0L144.47-14.32 155.3-28.34 163.25-28.34 151.39-14.32 162.7 0 154.75 0ZM172.26 0L166.22 0 166.22-28.34 172.26-28.34 172.26 0ZM184.28 0L184.28-23.28 175.27-23.28 175.27-28.34 199.7-28.34 199.7-23.28 190.31-23.28 190.31 0 184.28 0Z" transform="translate(-2.759999990463257, 28.34000015258789)"></path></g>       </g></g> </g></mask><defs v-gra="od"></defs><defs v-gra="id"><filter id="b27c49d1-7309-4ebf-9e21-ef0e40d25fff" filterUnits="userSpaceOnUse"><feColorMatrix type="matrix" values="0 0 0 0 0.99609375  0 0 0 0 0.99609375  0 0 0 0 0.99609375  0 0 0 1 0"></feColorMatrix></filter><linearGradient x1="0" y1="1" x2="1" y2="0" id="KI_GW-DWsrWrSd4WC4w1W"><stop offset="0%" stop-color="#fdb051"></stop><stop offset="50%" stop-color="#f2203e"></stop><stop offset="100%" stop-color="#5342d6"></stop></linearGradient><filter id="42443b3f1de60f6b6fd3b6a9844b4764" filterUnits="objectBoundingBox"><feColorMatrix type="matrix" values="0 0 0 0 0.99609375  0 0 0 0 0.99609375  0 0 0 0 0.99609375  0 0 0 1 0"></feColorMatrix></filter></defs><mask v-gra="im" id="ed82da73-d1e8-47c5-9c71-2a9b58ac59b9"><g mask="url(#b6595cd2-d314-438e-8a14-8219b067722e)" filter="url(#b27c49d1-7309-4ebf-9e21-ef0e40d25fff)"><g><rect fill="#333333" fill-opacity="0" stroke-width="2" x="0" y="0" width="130" height="130" class="image-rect"></rect> <svg x="0" y="0" width="130" height="130" filtersec="colorsb2909740450" class="image-svg-svg primary" style="overflow: visible;"><svg fill="#000000" xmlns="http://www.w3.org/2000/svg" xmlns:xlink="http://www.w3.org/1999/xlink" version="1.1" x="0px" y="0px" viewBox="11.361000061035156 11.361000061035156 77.27799987792969 77.27799987792969" enable-background="new 0 0 100 100" xml:space="preserve"><path d="M50,11.361L50,11.361C28.66,11.361,11.361,28.66,11.361,50v0c0,21.34,17.299,38.639,38.639,38.639h0  c21.34,0,38.639-17.299,38.639-38.639v0C88.639,28.66,71.34,11.361,50,11.361z M50,82.279c-17.799,0-32.279-14.48-32.279-32.279  c0-17.799,14.48-32.279,32.279-32.279c17.799,0,32.279,14.48,32.279,32.279C82.279,67.799,67.799,82.279,50,82.279z"></path></svg></svg> <!----></g></g></mask></svg>